<?xml version="1.0" standalone="no"?>
<!DOCTYPE svg PUBLIC "-//W3C//DTD SVG 20010904//EN"
  "http://www.w3.org/TR/2001/REC-SVG-20010904/DTD/svg10.dtd">
<svg version="1.0" xmlns="http://www.w3.org/2000/svg"
     width="512.000000pt" height="512.000000pt" viewBox="0 0 512.000000 512.000000"
     preserveAspectRatio="xMidYMid meet">
  <metadata>
    Created by potrace 1.11, written by Peter Selinger 2001-2013
  </metadata>
  <g transform="translate(0.000000,512.000000) scale(0.100000,-0.100000)"
     fill="#000000" stroke="none">
    <path d="M2379 5116 c-2 -2 -35 -6 -74 -10 -662 -58 -1309 -408 -1736 -939
-82 -101 -219 -299 -219 -316 0 -5 -3 -11 -8 -13 -7 -3 -90 -166 -131 -259
-102 -230 -169 -488 -198 -759 -15 -136 -8 -503 11 -615 3 -16 8 -43 10 -60
23 -166 96 -414 174 -595 209 -483 559 -890 1005 -1166 80 -50 317 -174 332
-174 3 0 24 -9 48 -19 158 -72 415 -140 622 -166 28 -4 77 -10 110 -15 60 -8
467 -5 515 4 14 2 45 7 70 11 64 9 88 13 150 25 30 6 64 13 75 15 11 2 54 12
96 24 575 156 1091 521 1431 1012 71 102 168 264 168 279 0 6 4 10 10 10 5 0
9 3 8 8 -1 4 14 41 34 83 96 202 185 505 213 722 27 207 27 559 1 712 -3 17
-8 44 -10 60 -3 17 -10 55 -16 85 -6 30 -14 66 -16 80 -12 61 -74 266 -99 325
-6 17 -25 62 -41 100 -34 83 -150 311 -164 325 -3 3 -21 30 -40 60 -125 201
-337 435 -545 603 -55 44 -115 89 -132 100 -18 10 -33 23 -33 28 0 5 -6 9 -13
9 -7 0 -31 13 -53 30 -21 16 -44 30 -51 30 -6 0 -13 4 -15 9 -4 12 -265 142
-358 179 -86 34 -226 80 -260 87 -12 2 -37 9 -54 14 -40 13 -217 48 -281 56
-27 4 -61 9 -75 11 -28 6 -456 15 -461 10z m426 -650 c17 -3 46 -9 65 -12 61
-11 84 -15 130 -25 59 -13 212 -59 225 -68 6 -4 28 -13 50 -20 78 -26 310
-149 347 -184 7 -6 25 -18 39 -25 15 -8 37 -24 50 -35 13 -12 42 -35 64 -51
22 -17 87 -77 145 -135 303 -304 489 -683 544 -1111 14 -107 14 -403 1 -490
-16 -103 -58 -280 -86 -365 -67 -197 -227 -484 -337 -603 -21 -23 -37 -42 -34
-42 11 0 -180 -182 -248 -237 -274 -220 -604 -361 -955 -407 -102 -13 -409
-14 -495 -1 -77 11 -243 47 -270 57 -14 5 -32 11 -40 13 -97 20 -347 136 -480
223 -425 276 -734 718 -834 1197 -33 156 -40 226 -40 410 0 192 5 255 34 391
148 712 676 1272 1381 1468 80 22 204 46 274 52 33 3 61 7 63 9 6 5 373 -3
407 -9z"/>
    <path d="M2499 4156 c-3 -3 -14 -7 -25 -9 -74 -11 -162 -87 -206 -176 l-23
-46 0 -725 0 -725 24 -50 c19 -38 109 -135 381 -407 395 -397 408 -406 535
-413 35 -2 70 -7 76 -11 8 -4 9 -3 5 4 -4 7 -1 12 9 12 26 0 116 48 148 78 70
66 109 179 95 271 -17 106 -34 129 -344 440 l-293 295 -1 585 c0 322 -3 602
-6 621 -15 92 -89 187 -178 229 -47 22 -184 41 -197 27z"/>
  </g>
</svg>
